<svg xmlns="http://www.w3.org/2000/svg" xmlns:xlink="http://www.w3.org/1999/xlink" width="1024" zoomAndPan="magnify" viewBox="0 0 768 767.999994" height="1024" preserveAspectRatio="xMidYMid meet" version="1.0"><defs><clipPath id="2491aae5e7"><path d="M 244.03125 231 L 523.78125 231 L 523.78125 537.898438 L 244.03125 537.898438 Z M 244.03125 231 " clip-rule="nonzero"/></clipPath><clipPath id="2d5b6b997a"><path d="M 108.828125 108.828125 L 659.328125 108.828125 L 659.328125 659.328125 L 108.828125 659.328125 Z M 108.828125 108.828125 " clip-rule="nonzero"/></clipPath></defs><g clip-path="url(#2491aae5e7)"><path fill="#500404" d="M 493.117188 366.351562 L 493.117188 310.023438 L 383.90625 261.511719 L 274.695312 310.023438 L 274.695312 366.351562 C 274.695312 432.769531 319.734375 490.636719 383.90625 506.921875 C 448.078125 490.636719 493.117188 432.769531 493.117188 366.351562 Z M 262.398438 282.246094 C 251.429688 287.117188 244.359375 298.007812 244.359375 310.023438 L 244.359375 366.351562 C 244.359375 447.210938 299.550781 517.59375 377.980469 536.753906 C 381.875 537.707031 385.941406 537.707031 389.835938 536.753906 C 468.265625 517.59375 523.453125 447.210938 523.453125 366.351562 L 523.453125 310.023438 C 523.453125 298.007812 516.382812 287.117188 505.414062 282.246094 L 396.207031 233.734375 C 388.375 230.257812 379.441406 230.257812 371.609375 233.734375 Z M 262.398438 282.246094 " fill-opacity="1" fill-rule="evenodd"/></g><path fill="#500404" d="M 399.074219 385.25 C 408.144531 379.996094 414.242188 370.175781 414.242188 358.929688 C 414.242188 342.148438 400.660156 328.542969 383.90625 328.542969 C 367.152344 328.542969 353.570312 342.148438 353.570312 358.929688 C 353.570312 370.175781 359.671875 379.996094 368.738281 385.25 L 368.738281 419.699219 C 368.738281 428.089844 375.53125 434.894531 383.90625 434.894531 C 392.285156 434.894531 399.074219 428.089844 399.074219 419.699219 Z M 399.074219 385.25 " fill-opacity="1" fill-rule="nonzero"/><g clip-path="url(#2d5b6b997a)"><path fill="#ffffff" d="M 384.078125 108.828125 C 232.304688 108.828125 108.828125 232.304688 108.828125 384.078125 C 108.828125 535.855469 232.304688 659.328125 384.078125 659.328125 C 535.855469 659.328125 659.328125 535.855469 659.328125 384.078125 C 659.328125 232.304688 535.855469 108.828125 384.078125 108.828125 Z M 162.101562 384.078125 C 162.101562 261.679688 261.679688 162.101562 384.078125 162.101562 C 435.699219 162.101562 483.140625 179.964844 520.882812 209.628906 L 209.628906 520.882812 C 179.964844 483.136719 162.101562 435.699219 162.101562 384.078125 Z M 384.078125 606.054688 C 332.460938 606.054688 285.019531 588.195312 247.273438 558.53125 L 558.53125 247.273438 C 588.195312 285.019531 606.054688 332.460938 606.054688 384.078125 C 606.054688 506.476562 506.476562 606.054688 384.078125 606.054688 Z M 384.078125 606.054688 " fill-opacity="1" fill-rule="nonzero"/></g></svg>